<svg width="100" height="100" viewBox="0 0 100 100" fill="none" xmlns="http://www.w3.org/2000/svg">
<path d="M28.125 56.2689C27.2962 56.2689 26.5013 56.5982 25.9153 57.1842C25.3292 57.7703 25 58.5651 25 59.3939V71.8939C25 72.7227 25.3292 73.5176 25.9153 74.1036C26.5013 74.6897 27.2962 75.0189 28.125 75.0189C28.9538 75.0189 29.7487 74.6897 30.3347 74.1036C30.9208 73.5176 31.25 72.7227 31.25 71.8939V70.8564H33.3313C35.2657 70.8564 37.1209 70.088 38.4887 68.7201C39.8566 67.3523 40.625 65.4971 40.625 63.5627C40.625 61.6283 39.8566 59.7731 38.4887 58.4052C37.1209 57.0374 35.2657 56.2689 33.3313 56.2689H28.125ZM33.3313 64.6064H31.25V62.5189H33.3313C33.6081 62.5189 33.8736 62.6289 34.0693 62.8246C34.265 63.0204 34.375 63.2859 34.375 63.5627C34.375 63.8395 34.265 64.105 34.0693 64.3007C33.8736 64.4965 33.6081 64.6064 33.3313 64.6064V64.6064ZM62.5063 59.3877C62.5079 58.56 62.8379 57.7667 63.4238 57.182C64.0096 56.5973 64.8035 56.2689 65.6313 56.2689H71.8688C72.6976 56.2689 73.4924 56.5982 74.0785 57.1842C74.6645 57.7703 74.9938 58.5651 74.9938 59.3939C74.9938 60.2227 74.6645 61.0176 74.0785 61.6036C73.4924 62.1897 72.6976 62.5189 71.8688 62.5189H68.7438V64.6127H71.8688C72.6976 64.6127 73.4924 64.9419 74.0785 65.528C74.6645 66.114 74.9938 66.9089 74.9938 67.7377C74.9938 68.5665 74.6645 69.3613 74.0785 69.9474C73.4924 70.5334 72.6976 70.8627 71.8688 70.8627H68.75V71.8877C68.7508 72.2981 68.6708 72.7046 68.5145 73.084C68.3582 73.4635 68.1287 73.8084 67.8391 74.0992C67.2543 74.6864 66.4601 75.0173 65.6313 75.0189C64.8025 75.0206 64.0069 74.6929 63.4197 74.1081C62.8325 73.5232 62.5017 72.729 62.5 71.9002V59.3877H62.5063ZM46.8625 56.2689C46.0337 56.2689 45.2388 56.5982 44.6528 57.1842C44.0667 57.7703 43.7375 58.5651 43.7375 59.3939V71.8939C43.7375 72.7227 44.0667 73.5176 44.6528 74.1036C45.2388 74.6897 46.0337 75.0189 46.8625 75.0189H50C52.4864 75.0189 54.871 74.0312 56.6291 72.2731C58.3873 70.5149 59.375 68.1303 59.375 65.6439C59.375 63.1575 58.3873 60.773 56.6291 59.0148C54.871 57.2566 52.4864 56.2689 50 56.2689H46.8625V56.2689ZM49.9875 68.7689V62.5189H50C50.8288 62.5189 51.6237 62.8482 52.2097 63.4342C52.7958 64.0203 53.125 64.8151 53.125 65.6439C53.125 66.4727 52.7958 67.2676 52.2097 67.8536C51.6237 68.4397 50.8288 68.7689 50 68.7689H49.9875V68.7689ZM18.75 21.8877V44.2752C16.9204 44.922 15.3366 46.1208 14.2171 47.7059C13.0977 49.2911 12.4977 51.1846 12.5 53.1252V78.1439C12.5 80.6303 13.4877 83.0149 15.2459 84.773C17.004 86.5312 19.3886 87.5189 21.875 87.5189H78.125C80.6114 87.5189 82.996 86.5312 84.7541 84.773C86.5123 83.0149 87.5 80.6303 87.5 78.1439V53.1189C87.501 51.1794 86.9005 49.2873 85.7811 47.7034C84.6617 46.1194 83.0786 44.9217 81.25 44.2752V33.8377C81.2514 32.6038 81.0092 31.3818 80.5373 30.2417C80.0654 29.1016 79.373 28.0659 78.5 27.1939L66.525 15.2564C64.7675 13.5001 62.3847 12.5132 59.9 12.5127H28.125C25.6386 12.5127 23.254 13.5004 21.4959 15.2586C19.7377 17.0167 18.75 19.4013 18.75 21.8877V21.8877ZM28.125 18.7627H56.25V28.1252C56.25 30.6116 57.2377 32.9962 58.9959 34.7543C60.754 36.5125 63.1386 37.5002 65.625 37.5002H75V43.7439H25V21.8877C25 21.0589 25.3292 20.264 25.9153 19.678C26.5013 19.0919 27.2962 18.7627 28.125 18.7627V18.7627ZM62.5 20.0627L73.7125 31.2502H65.625C64.7962 31.2502 64.0013 30.9209 63.4153 30.3349C62.8292 29.7488 62.5 28.954 62.5 28.1252V20.0627ZM21.875 50.0002H78.125C78.9538 50.0002 79.7487 50.3294 80.3347 50.9155C80.9208 51.5015 81.25 52.2964 81.25 53.1252V78.1439C81.25 78.9727 80.9208 79.7676 80.3347 80.3536C79.7487 80.9397 78.9538 81.2689 78.125 81.2689H21.875C21.0462 81.2689 20.2513 80.9397 19.6653 80.3536C19.0792 79.7676 18.75 78.9727 18.75 78.1439V53.1189C18.75 52.2901 19.0792 51.4953 19.6653 50.9092C20.2513 50.3232 21.0462 49.9939 21.875 49.9939V50.0002Z" fill="white"/>
</svg>
