<svg width="205" height="200" viewBox="0 0 205 200" fill="none" xmlns="http://www.w3.org/2000/svg">
<rect width="205" height="200" rx="46.6667" fill="#26304D"/>
<path d="M79.1668 79.1263C79.1668 80.2314 79.6058 81.2912 80.3872 82.0726C81.1686 82.854 82.2284 83.293 83.3335 83.293H88.3418L86.5002 91.668H79.1668C78.0618 91.668 77.002 92.107 76.2206 92.8884C75.4391 93.6698 75.0002 94.7296 75.0002 95.8346C75.0002 96.9397 75.4391 97.9995 76.2206 98.7809C77.002 99.5623 78.0618 100.001 79.1668 100.001H84.6502L83.4668 105.318C83.2281 106.398 83.4281 107.528 84.0228 108.46C84.6174 109.392 85.558 110.05 86.6377 110.289C87.7173 110.527 88.8476 110.328 89.7798 109.733C90.712 109.138 91.3698 108.198 91.6085 107.118L93.1835 100.001H101.258L100.067 105.31C99.9475 105.844 99.9346 106.396 100.029 106.935C100.123 107.474 100.322 107.989 100.616 108.451C100.909 108.913 101.29 109.313 101.738 109.627C102.186 109.942 102.691 110.165 103.225 110.285C103.759 110.404 104.312 110.417 104.851 110.323C105.39 110.229 105.905 110.029 106.367 109.736C106.829 109.443 107.228 109.061 107.543 108.613C107.858 108.166 108.081 107.66 108.2 107.126L109.792 100.001H116.667C117.772 100.001 118.832 99.5623 119.613 98.7809C120.395 97.9995 120.833 96.9397 120.833 95.8346C120.833 94.7296 120.395 93.6698 119.613 92.8884C118.832 92.107 117.772 91.668 116.667 91.668H111.65L113.525 83.293H120.833C121.939 83.293 122.998 82.854 123.78 82.0726C124.561 81.2912 125 80.2314 125 79.1263C125 78.0212 124.561 76.9614 123.78 76.18C122.998 75.3986 121.939 74.9596 120.833 74.9596H115.383L116.558 69.6846C116.678 69.1506 116.691 68.5983 116.597 68.0592C116.502 67.5202 116.303 67.005 116.01 66.543C115.716 66.0811 115.335 65.6814 114.887 65.3668C114.44 65.0522 113.934 64.8289 113.4 64.7096C112.866 64.5904 112.314 64.5774 111.775 64.6716C111.236 64.7658 110.721 64.9652 110.259 65.2584C109.326 65.8507 108.666 66.7894 108.425 67.868L106.842 74.9596H98.7252L99.8918 69.6763C100.109 68.6063 99.898 67.4937 99.3035 66.5779C98.709 65.6621 97.7788 65.0162 96.7129 64.7792C95.6471 64.5423 94.5308 64.7331 93.6043 65.3108C92.6777 65.8884 92.0149 66.8066 91.7585 67.868L90.1918 74.9596H83.3335C82.2284 74.9596 81.1686 75.3986 80.3872 76.18C79.6058 76.9614 79.1668 78.0212 79.1668 79.1263ZM103.117 91.668H95.0335L96.8835 83.293H104.983L103.117 91.668ZM75.0002 41.668H125C129.42 41.668 133.66 43.4239 136.785 46.5495C139.911 49.6751 141.667 53.9144 141.667 58.3346V137.476C141.667 138.581 141.228 139.641 140.446 140.423C139.665 141.204 138.605 141.643 137.5 141.643H66.6668V141.668C66.6668 143.878 67.5448 145.998 69.1076 147.561C70.6704 149.123 72.79 150.001 75.0002 150.001H137.5C138.605 150.001 139.665 150.44 140.446 151.222C141.228 152.003 141.667 153.063 141.667 154.168C141.667 155.273 141.228 156.333 140.446 157.114C139.665 157.896 138.605 158.335 137.5 158.335H75.0002C70.5799 158.335 66.3407 156.579 63.215 153.453C60.0894 150.327 58.3335 146.088 58.3335 141.668V58.3346C58.3335 53.9144 60.0894 49.6751 63.215 46.5495C66.3407 43.4239 70.5799 41.668 75.0002 41.668V41.668ZM66.6668 58.3346V133.31H133.333V58.3346C133.333 56.1245 132.456 54.0049 130.893 52.4421C129.33 50.8793 127.21 50.0013 125 50.0013H75.0002C72.79 50.0013 70.6704 50.8793 69.1076 52.4421C67.5448 54.0049 66.6668 56.1245 66.6668 58.3346V58.3346Z" fill="white"/>
</svg>
