<svg width="300" height="300" viewBox="0 0 300 300" fill="none" xmlns="http://www.w3.org/2000/svg">
<rect width="300" height="300" rx="66.6667" fill="white"/>
<path fill-rule="evenodd" clip-rule="evenodd" d="M147.371 156.249H147.718C171.659 156.249 191.065 136.843 191.065 112.902C191.065 88.962 171.659 69.5557 147.718 69.5557H147.371C123.591 69.7421 104.371 89.0791 104.371 112.902C104.371 136.726 123.591 156.063 147.371 156.249V156.249ZM182.127 117.237H173.458C173.224 121.195 172.669 124.996 171.836 128.572H178.659C180.461 125.023 181.635 121.188 182.127 117.237V117.237ZM172.417 137.242H169.101C168.464 138.815 167.757 140.311 167.003 141.728C168.956 140.419 170.771 138.916 172.422 137.242H172.417ZM162.894 128.572C163.839 125.118 164.498 121.307 164.771 117.237H152.053V128.572H162.894ZM152.053 137.242H159.569C159.236 137.883 158.893 138.499 158.538 139.093C156.37 142.695 154.129 144.923 152.053 146.184V137.242V137.242ZM143.384 128.572V117.237H130.388C130.661 121.307 131.32 125.118 132.265 128.572H143.384ZM135.59 137.242H143.384V146.344C141.234 145.118 138.884 142.859 136.621 139.093C136.259 138.486 135.915 137.869 135.59 137.242V137.242ZM123.323 128.572C122.465 124.846 121.922 121.054 121.702 117.237H113.31C113.812 121.268 115.009 125.092 116.777 128.572H123.323ZM123.019 137.242H126.054C126.652 138.707 127.302 140.103 128 141.429C126.211 140.192 124.542 138.79 123.015 137.242H123.019ZM173.458 108.568C173.237 104.75 172.695 100.959 171.836 97.2326H178.659C180.463 100.782 181.636 104.617 182.127 108.568H173.458V108.568ZM172.417 88.5632H169.101C168.464 86.9897 167.757 85.4943 167.003 84.0768C168.958 85.3902 170.774 86.8944 172.422 88.5632H172.417ZM152.053 88.5632H159.569C159.245 87.9358 158.901 87.3185 158.538 86.7123C156.37 83.1059 154.129 80.8822 152.053 79.6208V88.5632V88.5632ZM162.894 97.2326H152.053V108.568H164.771C164.522 104.737 163.894 100.939 162.894 97.2326V97.2326ZM143.384 79.4604V88.5632H135.59C135.924 87.9217 136.27 87.3062 136.621 86.7123C138.88 82.9455 141.234 80.6871 143.384 79.4561V79.4604ZM143.384 97.2326H132.265C131.32 100.687 130.661 104.497 130.388 108.568H143.384V97.2326ZM127.995 84.3759C127.302 85.7023 126.652 87.0981 126.058 88.5632H123.019C124.541 87.0157 126.21 85.6156 128 84.3759H127.995ZM123.323 97.2326H116.777C114.975 100.782 113.802 104.617 113.31 108.568H121.702C121.936 104.606 122.49 100.809 123.323 97.2326V97.2326ZM81.389 117.237C76.8896 117.133 72.3729 119.894 70.9121 124.194C70.548 125.269 70.3486 126.674 70.2055 127.952C70.0538 129.348 69.9368 131.026 69.8458 132.851C69.6579 137.03 69.561 141.212 69.5553 145.395C69.5207 154.143 69.7417 163.245 70.0582 166.067C70.613 171.009 73.4565 175.612 75.9273 179.617L76.2047 180.064C76.9546 181.278 77.6959 182.487 78.4241 183.731C81.6924 189.327 85.2469 193.098 88.4675 196.518L88.5412 196.592C90.3531 198.512 92.0306 200.298 93.6128 202.288C92.0779 203.899 91.2239 206.04 91.2287 208.265V216.935C91.2287 219.234 92.1421 221.439 93.7679 223.065C95.3937 224.691 97.5988 225.604 99.8981 225.604H134.576C136.875 225.604 139.08 224.691 140.706 223.065C142.331 221.439 143.245 219.234 143.245 216.935V208.265C143.245 206.071 142.413 203.959 140.916 202.354C139.42 200.749 137.371 199.771 135.182 199.618C134.597 194.693 133.839 188.044 133.769 186.15C133.709 184.52 133.162 182.929 132.651 181.72C132.114 180.473 131.497 179.263 130.804 178.096C130.092 176.884 129.328 175.702 128.516 174.555L128.347 174.32L128.303 174.255L128.286 174.234L128.277 174.221L128.234 174.16L114.172 156.431L114.042 156.301V156.293L114.025 156.275L113.921 156.163C113.274 155.447 112.653 154.71 112.057 153.952C110.73 152.295 109.574 150.509 108.606 148.62C107.618 146.592 105.746 144.645 102.872 144.502C100.423 144.372 98.5023 145.673 97.384 146.674C96.7681 147.229 96.2063 147.842 95.7065 148.503L95.5114 145.894L95.4897 145.608C95.0649 139.894 94.5491 132.981 92.8716 127.445C90.9036 120.969 86.5299 117.363 81.3847 117.241L81.389 117.237ZM124.788 176.796L128.277 174.221L124.788 176.791V176.796ZM126.448 199.596C125.884 194.828 125.182 188.599 125.104 186.466C125.089 186.338 125.061 186.212 125.022 186.089C124.923 185.745 124.803 185.408 124.662 185.079C124.271 184.185 123.824 183.316 123.323 182.478C122.738 181.484 122.112 180.515 121.446 179.574L121.333 179.414L107.601 162.101L107.523 162.014C106.73 161.137 105.968 160.232 105.238 159.301C104.07 157.82 102.997 156.267 102.026 154.65L101.996 154.697C101.606 155.421 101.389 156.084 101.324 156.518C101.086 158.052 101.207 159.11 101.329 159.682C101.365 159.865 101.416 160.045 101.48 160.22V160.233L109.421 176.002L102.048 180.506L101.94 180.359L101.641 179.947C100.093 177.813 98.5615 175.667 97.0459 173.51C94.4147 169.765 91.2677 165.17 89.7159 162.413C88.5542 160.354 88.0167 157.628 87.6743 155.161C87.3211 152.326 87.0536 149.482 86.8724 146.631L86.8637 146.535C86.4129 140.475 85.9448 134.485 84.575 129.964C83.9768 127.991 83.2052 126.999 82.6504 126.518C82.2517 126.145 81.731 125.929 81.1853 125.911C80.0019 125.88 79.2173 126.7 79.1176 126.994C79.109 127.02 79.07 127.168 79.0136 127.489C78.9354 127.953 78.8717 128.42 78.8229 128.889C78.6972 130.05 78.5888 131.542 78.5021 133.284C78.3232 137.33 78.2321 141.38 78.229 145.43C78.19 154.268 78.4284 162.864 78.6798 165.101C78.9919 167.896 80.7345 170.883 83.5867 175.513L83.5997 175.534C84.3366 176.731 85.1298 178.018 85.9144 179.362C88.6583 184.061 91.6145 187.212 94.8525 190.645L94.9262 190.723C97.3363 193.28 99.9544 196.055 102.425 199.596H126.448V199.596ZM103.366 152.981C103.366 152.981 103.348 152.985 103.318 153.011C103.335 153.003 103.351 152.993 103.366 152.981ZM134.576 216.935V208.265H99.8981V216.935H134.576ZM224.247 124.194C222.782 119.894 218.269 117.133 213.77 117.241C208.629 117.363 204.255 120.969 202.288 127.445C200.61 132.981 200.094 139.894 199.669 145.608L199.648 145.894L199.453 148.503C198.932 147.823 198.369 147.203 197.775 146.674C196.657 145.677 194.741 144.377 192.287 144.498C189.414 144.645 187.541 146.592 186.553 148.616C185.583 150.505 184.426 152.291 183.098 153.947C182.502 154.707 181.881 155.446 181.234 156.163L181.134 156.275L181.117 156.297L180.987 156.431L166.93 174.16L166.882 174.221L166.873 174.234L166.86 174.255L166.813 174.32C165.936 175.539 165.116 176.798 164.355 178.092C163.66 179.26 163.042 180.472 162.504 181.72C161.997 182.929 161.451 184.52 161.39 186.15C161.32 188.044 160.566 194.693 159.977 199.618C157.788 199.771 155.739 200.749 154.243 202.354C152.746 203.959 151.914 206.071 151.914 208.265V216.935C151.914 219.234 152.828 221.439 154.453 223.065C156.079 224.691 158.284 225.604 160.584 225.604H195.261C197.56 225.604 199.765 224.691 201.391 223.065C203.017 221.439 203.93 219.234 203.93 216.935V208.265C203.932 206.039 203.077 203.897 201.542 202.283C203.128 200.298 204.802 198.512 206.614 196.592L206.687 196.514C209.908 193.098 213.462 189.327 216.731 183.731C217.459 182.487 218.204 181.282 218.95 180.064L219.227 179.617C221.698 175.612 224.542 171.009 225.097 166.067C225.413 163.245 225.634 154.143 225.599 145.395C225.595 141.212 225.5 137.03 225.313 132.851C225.24 131.215 225.12 129.581 224.954 127.952C224.815 126.674 224.615 125.265 224.247 124.194V124.194ZM170.371 176.796L166.882 174.225L170.371 176.796ZM192.738 199.596C195.209 196.055 197.823 193.28 200.237 190.723L200.307 190.645C203.545 187.212 206.505 184.056 209.245 179.362C210.025 178.018 210.818 176.735 211.559 175.534L211.572 175.513C214.429 170.883 216.167 167.896 216.479 165.101C216.731 162.864 216.965 154.268 216.93 145.43C216.913 141.069 216.83 136.76 216.657 133.284C216.57 131.542 216.462 130.05 216.336 128.889C216.287 128.42 216.224 127.953 216.145 127.489C216.119 127.322 216.084 127.157 216.041 126.994C215.942 126.7 215.157 125.88 213.978 125.911C213.431 125.928 212.909 126.144 212.509 126.518C211.954 126.994 211.182 127.991 210.584 129.964C209.214 134.48 208.746 140.475 208.295 146.535L208.287 146.631C208.07 149.595 207.845 152.586 207.485 155.161C207.147 157.628 206.605 160.354 205.448 162.417C203.891 165.17 200.744 169.765 198.113 173.514C196.597 175.67 195.066 177.814 193.518 179.947L193.215 180.359L193.111 180.506L185.738 175.998L193.675 160.233L193.679 160.22C193.743 160.045 193.794 159.865 193.831 159.682C193.952 159.11 194.073 158.052 193.835 156.518C193.711 155.879 193.484 155.264 193.163 154.697L193.133 154.65C192.066 156.449 190.892 158.061 189.925 159.296C189.194 160.229 188.431 161.135 187.636 162.014L187.554 162.101L173.826 179.414L173.713 179.574C173.047 180.515 172.421 181.484 171.836 182.478C171.316 183.363 170.839 184.269 170.497 185.079C170.328 185.482 170.211 185.816 170.137 186.085C170.098 186.209 170.071 186.337 170.055 186.466C169.977 188.599 169.275 194.832 168.711 199.596H192.734H192.738ZM191.793 152.981C191.793 152.981 191.811 152.985 191.841 153.011C191.824 153.003 191.808 152.993 191.793 152.981V152.981ZM160.584 216.935V208.265H195.261V216.935H160.584Z" fill="black" fill-opacity="0.7"/>
</svg>
