<svg width="300" height="300" viewBox="0 0 300 300" fill="none" xmlns="http://www.w3.org/2000/svg">
<rect width="300" height="300" rx="66.6667" fill="white"/>
<path d="M186.29 77.4268V91.9429H208.115C212.092 91.9429 215.322 95.1727 215.322 99.1501V215.381C215.32 217.292 214.56 219.124 213.209 220.475C211.858 221.826 210.026 222.586 208.115 222.588H91.884C89.9731 222.586 88.141 221.826 86.7898 220.475C85.4386 219.124 84.6787 217.292 84.6768 215.381V99.1501C84.6768 95.1727 87.9066 91.9429 91.884 91.9429H113.709V77.4268H186.29ZM113.709 106.459H99.1929V208.072H200.806V106.459H186.29V120.975H113.709V106.459ZM128.225 179.04V193.556H113.709V179.04H128.225ZM128.225 157.265V171.782H113.709V157.265H128.225ZM128.225 135.491V150.007H113.709V135.491H128.225ZM171.774 91.9429H128.225V106.459H171.774V91.9429Z" fill="black" fill-opacity="0.7"/>
</svg>
