<svg width="205" height="200" viewBox="0 0 205 200" fill="none" xmlns="http://www.w3.org/2000/svg">
<rect width="205" height="200" rx="46.6667" fill="#26304D"/>
<path d="M63.541 47.5C67.0199 47.5031 70.3553 48.8873 72.8142 51.3483C75.2731 53.8094 76.6543 57.1461 76.6543 60.625V139.375C76.7067 141.131 76.4061 142.879 75.7703 144.517C75.1346 146.154 74.1767 147.647 72.9533 148.908C71.7298 150.168 70.2659 151.17 68.6481 151.854C67.0304 152.539 65.2917 152.891 63.5352 152.891C61.7786 152.891 60.04 152.539 58.4222 151.854C56.8044 151.17 55.3405 150.168 54.1171 148.908C52.8937 147.647 51.9357 146.154 51.3 144.517C50.6642 142.879 50.3636 141.131 50.416 139.375V60.625C50.416 57.144 51.7988 53.8056 54.2602 51.3442C56.7216 48.8828 60.06 47.5 63.541 47.5V47.5ZM101.458 70.8333C104.937 70.8364 108.272 72.2206 110.731 74.6817C113.19 77.1428 114.571 80.4794 114.571 83.9583V139.375C114.623 141.131 114.323 142.879 113.687 144.517C113.051 146.154 112.093 147.647 110.87 148.908C109.647 150.168 108.183 151.17 106.565 151.854C104.947 152.539 103.208 152.891 101.452 152.891C99.6953 152.891 97.9566 152.539 96.3389 151.854C94.7211 151.17 93.2571 150.168 92.0337 148.908C90.8103 147.647 89.8524 146.154 89.2166 144.517C88.5809 142.879 88.2803 141.131 88.3327 139.375V83.9583C88.3327 80.4774 89.7155 77.139 92.1769 74.6776C94.6383 72.2161 97.9767 70.8333 101.458 70.8333V70.8333ZM139.374 94.1667C142.853 94.1698 146.189 95.5539 148.648 98.015C151.106 100.476 152.488 103.813 152.488 107.292V139.375C152.54 141.131 152.239 142.879 151.604 144.517C150.968 146.154 150.01 147.647 148.787 148.908C147.563 150.168 146.099 151.17 144.481 151.854C142.864 152.539 141.125 152.891 139.368 152.891C137.612 152.891 135.873 152.539 134.256 151.854C132.638 151.17 131.174 150.168 129.95 148.908C128.727 147.647 127.769 146.154 127.133 144.517C126.498 142.879 126.197 141.131 126.249 139.375V107.292C126.249 105.568 126.588 103.861 127.247 102.268C127.906 100.675 128.873 99.2281 130.092 98.0092C131.311 96.7903 132.758 95.8235 134.351 95.1642C135.943 94.5049 137.651 94.1659 139.374 94.1667V94.1667ZM63.541 56.25C62.3807 56.25 61.2679 56.7109 60.4474 57.5314C59.6269 58.3519 59.166 59.4647 59.166 60.625V139.375C59.2239 140.495 59.7094 141.55 60.5225 142.322C61.3355 143.094 62.4139 143.524 63.5352 143.524C64.6564 143.524 65.7348 143.094 66.5478 142.322C67.3609 141.55 67.8464 140.495 67.9043 139.375V60.625C67.9043 59.4657 67.4442 58.3538 66.625 57.5335C65.8058 56.7132 64.6945 56.2515 63.5352 56.25H63.541ZM101.458 79.5833C100.297 79.5833 99.1845 80.0443 98.3641 80.8647C97.5436 81.6852 97.0827 82.798 97.0827 83.9583V139.375C97.1405 140.495 97.6261 141.55 98.4391 142.322C99.2522 143.094 100.331 143.524 101.452 143.524C102.573 143.524 103.651 143.094 104.465 142.322C105.278 141.55 105.763 140.495 105.821 139.375V83.9583C105.821 82.799 105.361 81.6871 104.542 80.8668C103.722 80.0465 102.611 79.5849 101.452 79.5833H101.458ZM139.374 102.917C138.214 102.917 137.101 103.378 136.281 104.198C135.46 105.019 134.999 106.131 134.999 107.292V139.375C135.057 140.495 135.543 141.55 136.356 142.322C137.169 143.094 138.247 143.524 139.368 143.524C140.49 143.524 141.568 143.094 142.381 142.322C143.194 141.55 143.68 140.495 143.738 139.375V107.292C143.738 106.132 143.278 105.02 142.458 104.2C141.639 103.38 140.528 102.918 139.368 102.917H139.374Z" fill="white"/>
</svg>
